<?xml version="1.0" standalone="no"?>
<!DOCTYPE svg PUBLIC "-//W3C//DTD SVG 20010904//EN"
 "http://www.w3.org/TR/2001/REC-SVG-20010904/DTD/svg10.dtd">
<svg version="1.0" xmlns="http://www.w3.org/2000/svg"
 width="345.000000pt" height="345.000000pt" viewBox="0 0 345.000000 345.000000"
 preserveAspectRatio="xMidYMid meet">

<g transform="translate(0.000000,345.000000) scale(0.100000,-0.100000)"
fill="#000000" stroke="none">
<path d="M1270 3049 c0 -5 5 -7 10 -4 6 3 10 8 10 11 0 2 -4 4 -10 4 -5 0 -10
-5 -10 -11z"/>
<path d="M1545 2678 c3 -265 8 -394 16 -418 11 -31 25 -49 39 -50 3 0 3 84 0
187 -5 171 -7 188 -22 187 -17 -2 -18 15 -18 232 0 142 -4 235 -10 239 -6 4
-8 -126 -5 -377z"/>
<path d="M1260 2858 c0 -112 4 -178 10 -178 13 0 13 320 0 340 -6 10 -10 -44
-10 -162z"/>
<path d="M1242 2620 c-16 -25 -15 -30 3 -30 13 0 15 -51 17 -377 l3 -378 148
-3 147 -3 0 -187 0 -187 140 0 140 0 0 577 c0 577 0 578 -20 561 -19 -17 -20
-30 -20 -397 0 -348 -1 -378 -16 -360 -9 10 -6 2 5 -18 12 -20 18 -39 14 -41
-4 -3 -6 -56 -3 -117 3 -76 1 -114 -6 -117 -6 -2 -51 -3 -100 -1 l-89 3 -3
250 c-2 230 -1 248 14 230 9 -12 8 -6 -4 15 -11 19 -29 53 -41 75 -19 36 -21
37 -22 15 -1 -14 -1 -47 1 -73 1 -27 -1 -84 -5 -128 l-7 -79 -129 0 -129 0 0
373 c1 429 -8 419 95 95 33 -103 63 -188 67 -188 3 0 20 11 36 25 35 30 39 30
45 8 4 -14 5 -12 6 5 1 16 -5 22 -19 22 -11 0 -20 -4 -20 -9 0 -15 -39 -20
-50 -6 -15 18 -140 427 -134 437 3 4 12 8 20 8 8 0 14 5 14 10 0 13 -3 13 -34
-1 -19 -9 -29 -9 -39 -1 -10 8 -16 6 -25 -8z"/>
<path d="M1592 2146 c25 -38 37 -41 18 -6 -10 18 -9 24 1 31 10 6 6 9 -14 9
l-27 0 22 -34z"/>
<path d="M1368 1863 c29 -2 74 -2 100 0 26 2 2 3 -53 3 -55 0 -76 -1 -47 -3z"/>
<path d="M1186 1295 c-6 -16 104 -294 116 -295 4 0 10 9 13 20 7 22 -100 290
-115 290 -4 0 -10 -7 -14 -15z"/>
<path d="M1510 1295 c0 -11 15 -38 33 -59 l34 -39 36 48 c20 26 37 53 37 58 0
6 -14 -8 -31 -31 -28 -39 -49 -53 -49 -34 0 4 -14 23 -30 42 -25 29 -29 32
-30 15z"/>
<path d="M1901 1284 c-26 -19 -51 -72 -50 -106 0 -19 3 -17 16 12 8 19 23 44
32 55 16 18 35 55 28 55 -1 0 -13 -7 -26 -16z"/>
<path d="M1121 1147 c-11 -27 -21 -50 -21 -51 0 -2 20 -3 45 -3 35 0 45 4 40
14 -3 8 -5 17 -5 19 0 2 -11 4 -25 4 -23 0 -24 2 -15 21 6 11 9 25 7 32 -3 7
-14 -10 -26 -36z"/>
<path d="M1617 1152 c-3 -4 18 -38 46 -77 62 -86 76 -68 16 21 -43 63 -53 72
-62 56z"/>
<path d="M1520 1143 c0 -5 -19 -28 -41 -53 -24 -26 -38 -36 -35 -25 6 16 5 18
-5 8 -10 -10 -10 -16 -2 -24 6 -6 9 -19 7 -28 -3 -9 3 -5 13 9 10 13 33 44 51
67 35 47 37 53 22 53 -5 0 -10 -3 -10 -7z"/>
<path d="M1930 1111 c15 -29 30 -35 73 -32 26 2 37 -1 33 -8 -10 -16 6 -14 31
4 20 14 23 14 32 -2 6 -10 10 -13 10 -8 1 6 -8 21 -18 35 -17 21 -22 23 -46
12 -36 -16 -80 -15 -95 3 -18 22 -33 18 -20 -4z"/>
<path d="M1847 1073 c-10 -9 -8 -41 2 -47 5 -4 7 3 4 15 -4 12 0 25 8 30 8 5
9 9 3 9 -6 0 -14 -3 -17 -7z"/>
<path d="M1072 1023 c-15 -27 -15 -36 0 -27 6 4 41 7 77 7 l66 0 -62 4 c-48 3
-62 8 -65 21 -3 15 -6 14 -16 -5z"/>
<path d="M1588 1013 c7 -3 16 -2 19 1 4 3 -2 6 -13 5 -11 0 -14 -3 -6 -6z"/>
<path d="M1888 1013 c6 -2 18 -2 25 0 6 3 1 5 -13 5 -14 0 -19 -2 -12 -5z"/>
<path d="M1090 973 c-58 -2 -109 -9 -115 -15 -7 -7 154 -8 562 -3 l571 7 5
-24 c3 -18 5 -16 6 10 l1 32 -462 -2 c-255 -1 -510 -4 -568 -5z"/>
</g>
</svg>
